<svg width="136" height="121" viewBox="0 0 136 121" fill="none" xmlns="http://www.w3.org/2000/svg">
<path d="M59.888 31.7457H59.8948V97.4739H42.6411L41.1623 91.8049H40.6694C38.5332 93.9411 36.0684 95.6664 33.2749 96.981C30.4815 98.2956 27.7702 98.9528 25.141 98.9528C20.0471 98.9528 15.6105 97.6383 11.8311 95.0091C8.05171 92.38 5.13501 88.6417 3.081 83.7943C1.02698 78.9468 0 73.2367 0 66.6639C0 60.1732 1.19124 54.4836 3.57389 49.5951C5.95655 44.7065 9.07868 40.9477 12.9402 38.3186C16.8018 35.6894 20.8687 34.3749 25.141 34.3749C28.2631 34.3749 30.9128 34.8884 33.0901 35.9154C35.0046 36.8185 36.8715 38.1186 38.6908 39.8159V23.0153C39.3728 15.379 46.4384 11.5609 59.8877 11.5609H59.888V31.7457ZM38.6975 73.117H38.6908V54.5803C36.4735 52.6125 33.6823 51.6285 30.3171 51.6285C27.8523 51.6285 25.7983 52.8198 24.1551 55.2025C22.5119 57.5852 21.6903 61.3234 21.6903 66.4174C21.6903 71.7578 22.4709 75.6398 24.0319 78.0636C25.593 80.4873 27.8524 81.6992 30.8102 81.6992C32.5355 81.6992 34.0144 81.3705 35.2468 80.7132C36.4792 80.056 37.6294 78.9057 38.6975 77.2625V73.117ZM62.116 118.906L62.1258 118.902C71.7751 115.099 76.536 107.216 76.4085 95.2541C76.4088 95.1729 76.4091 95.0913 76.4091 95.0091L76.6554 35.8538H97.8529L97.6064 94.2697C97.6064 102.075 95.7578 108.422 92.0606 113.31C88.3634 118.199 82.2425 120.643 73.6978 120.643C69.0968 120.643 65.2353 120.068 62.1132 118.918L62.116 118.906ZM87.6671 24.8192C80.8134 24.8192 75.2575 19.2633 75.2575 12.4096C75.2575 5.55598 80.8134 0 87.6671 0C94.5207 0 100.077 5.55598 100.077 12.4096C100.077 19.2633 94.5207 24.8192 87.6671 24.8192ZM122.922 97.6457C116.068 97.6457 110.513 92.0898 110.513 85.2361C110.513 78.3825 116.068 72.8265 122.922 72.8265C129.776 72.8265 135.332 78.3825 135.332 85.2361C135.332 92.0898 129.776 97.6457 122.922 97.6457Z" fill="white"/>
</svg>
