<svg width="196" height="196" fill="none" xmlns="http://www.w3.org/2000/svg">
  <circle cx="98" cy="98" r="98" fill="#4A5FFB"/>
  <path d="M89.888 69.7457h.0068v65.7283H72.6411l-1.4788-5.669h-.4929c-2.1362 2.136-4.601 3.861-7.3945 5.176-2.7934 1.315-5.5047 1.972-8.1339 1.972-5.0939 0-9.5305-1.315-13.3099-3.944-3.7794-2.629-6.6961-6.367-8.7501-11.215-2.054-4.847-3.081-10.557-3.081-17.13 0-6.4908 1.1912-12.1804 3.5739-17.0689 2.3827-4.8886 5.5048-8.6474 9.3663-11.2765 3.8616-2.6292 7.9285-3.9437 12.2008-3.9437 3.1221 0 5.7718.5135 7.9491 1.5405 1.9145.9031 3.7814 2.2032 5.6007 3.9005V61.0153c.682-7.6363 7.7476-11.4544 21.1969-11.4544h.0003v20.1848zM68.6975 111.117h-.0067V92.5803c-2.2173-1.9678-5.0085-2.9518-8.3737-2.9518-2.4648 0-4.5188 1.1913-6.162 3.574-1.6432 2.3827-2.4648 6.1209-2.4648 11.2145 0 5.341.7806 9.223 2.3416 11.647 1.5611 2.423 3.8205 3.635 6.7783 3.635 1.7253 0 3.2042-.328 4.4366-.986 1.2324-.657 2.3826-1.807 3.4507-3.45v-4.146zm23.4185 45.789l.0098-.004c9.6492-3.803 14.4102-11.686 14.2822-23.648.001-.081.001-.163.001-.245l.246-59.1552h21.198l-.247 58.4162c0 7.805-1.848 14.152-5.545 19.04-3.698 4.889-9.819 7.333-18.363 7.333-4.6012 0-8.4627-.575-11.5848-1.725l.0028-.012zm25.551-94.0868c-6.854 0-12.41-5.5559-12.41-12.4096 0-6.8536 5.556-12.4096 12.41-12.4096s12.41 5.556 12.41 12.4096c0 6.8537-5.556 12.4096-12.41 12.4096zm35.255 72.8268c-6.854 0-12.409-5.556-12.409-12.41s5.555-12.41 12.409-12.41c6.854 0 12.41 5.556 12.41 12.41s-5.556 12.41-12.41 12.41z" fill="#fff"/>
</svg>
