<?xml version="1.0" standalone="no"?>
<!DOCTYPE svg PUBLIC "-//W3C//DTD SVG 20010904//EN"
 "http://www.w3.org/TR/2001/REC-SVG-20010904/DTD/svg10.dtd">
<svg version="1.0" xmlns="http://www.w3.org/2000/svg"
 width="1088.000000pt" height="1088.000000pt" viewBox="0 0 1088.000000 1088.000000"
 preserveAspectRatio="xMidYMid meet">
<metadata>
Created by potrace 1.14, written by Peter Selinger 2001-2017
</metadata>
<g transform="translate(0.000000,1088.000000) scale(0.100000,-0.100000)"
fill="#000000" stroke="none">
<path d="M6908 10275 c-1 -1 -25 -6 -53 -9 -27 -4 -75 -14 -105 -22 -30 -9
-60 -17 -66 -18 -7 -1 -19 -8 -28 -15 -9 -8 -19 -11 -23 -7 -3 3 -15 -2 -26
-11 -10 -10 -22 -17 -26 -17 -25 6 -176 -98 -260 -179 -30 -28 -72 -77 -95
-107 -22 -30 -43 -57 -46 -60 -3 -3 -22 -37 -43 -77 -50 -95 -87 -207 -105
-313 -11 -71 -7 -290 7 -346 7 -29 14 -58 15 -65 2 -8 6 -23 10 -34 37 -97 53
-136 75 -175 13 -25 29 -54 35 -65 6 -11 17 -24 24 -28 6 -4 12 -14 12 -22 0
-16 195 -215 211 -215 5 0 20 -9 32 -21 34 -32 214 -116 297 -138 171 -46 372
-46 518 -2 17 5 32 8 32 6 0 -5 69 24 162 68 38 18 68 35 68 40 0 4 5 7 11 7
10 0 24 9 92 63 47 36 120 109 157 157 19 25 40 51 47 58 7 7 13 20 13 27 0 8
7 18 16 23 9 5 15 11 13 13 -1 2 8 23 19 46 46 89 85 213 98 308 7 47 7 225 1
275 -7 57 -29 154 -37 165 -4 6 -10 22 -14 37 -7 30 -57 135 -89 189 -50 83
-160 203 -242 266 -39 30 -163 106 -177 109 -5 1 -11 3 -15 4 -5 1 -11 2 -15
1 -5 0 -8 3 -8 8 0 11 -131 49 -226 66 -67 12 -256 19 -266 10z"/>
<path d="M4616 9353 c-1 -1 -51 -4 -111 -7 -61 -3 -110 -6 -110 -6 0 -1 -20
-3 -45 -5 -25 -2 -45 -4 -45 -5 0 -1 -16 -3 -35 -5 -111 -9 -394 -66 -435 -88
-11 -6 -21 -10 -22 -9 -3 2 -26 -5 -65 -20 -15 -6 -31 -10 -35 -10 -4 0 -14
-4 -20 -10 -7 -6 -13 -7 -13 -4 0 4 -13 -2 -29 -13 -16 -12 -34 -21 -39 -21
-13 0 -72 -31 -90 -47 -7 -7 -17 -13 -22 -13 -22 0 -220 -170 -220 -189 0 -4
-11 -18 -25 -31 -14 -13 -25 -29 -25 -37 0 -7 -4 -13 -8 -13 -10 0 -82 -152
-82 -172 0 -8 -3 -18 -7 -22 -4 -3 -8 -14 -9 -22 -2 -9 -8 -39 -15 -68 -10
-39 -13 -218 -13 -743 -1 -761 4 -708 -61 -646 -16 16 -59 51 -95 78 -36 28
-66 53 -68 58 -2 4 -8 7 -13 7 -6 0 -36 16 -67 37 -84 54 -231 123 -272 128
-3 0 -9 3 -15 6 -9 5 -80 24 -126 33 -8 2 -31 6 -52 11 -113 23 -419 28 -543
9 -127 -20 -227 -44 -294 -71 -8 -4 -17 -7 -20 -8 -3 -1 -20 -6 -37 -10 -18
-4 -33 -11 -33 -15 0 -3 -6 -7 -13 -7 -14 0 -189 -83 -197 -94 -3 -3 -15 -9
-27 -13 -13 -4 -23 -12 -23 -17 0 -5 -6 -9 -14 -9 -8 0 -21 -6 -28 -12 -21
-20 -108 -78 -116 -78 -4 0 -14 -9 -22 -20 -8 -11 -20 -20 -27 -20 -6 0 -19
-10 -27 -22 -9 -12 -16 -19 -16 -15 0 4 -11 -2 -24 -15 -13 -13 -56 -53 -94
-90 -39 -37 -104 -107 -144 -155 -40 -49 -76 -89 -80 -91 -5 -2 -8 -8 -8 -12
0 -5 -18 -33 -40 -62 -21 -29 -39 -57 -39 -62 1 -5 -4 -12 -9 -15 -26 -16
-168 -282 -227 -426 -42 -100 -96 -259 -98 -287 -1 -10 -4 -18 -7 -18 -4 0 -7
-6 -8 -12 0 -7 -3 -22 -6 -33 -13 -47 -28 -111 -30 -130 -2 -11 -6 -29 -9 -40
-3 -11 -9 -38 -12 -60 -3 -23 -8 -52 -10 -65 -3 -14 -8 -47 -11 -75 -3 -27 -7
-61 -10 -75 -13 -80 -19 -224 -19 -445 1 -269 7 -374 30 -551 4 -27 8 -62 11
-79 2 -16 6 -41 9 -53 3 -13 8 -42 11 -64 3 -21 7 -45 8 -51 1 -7 5 -18 9 -24
5 -7 6 -13 3 -13 -2 0 0 -15 5 -32 8 -29 15 -62 23 -105 1 -7 5 -16 9 -19 4
-4 7 -15 7 -24 0 -16 53 -188 69 -225 5 -11 19 -47 32 -80 49 -129 209 -426
244 -455 8 -7 15 -18 15 -25 0 -8 3 -15 8 -17 4 -1 20 -21 37 -43 16 -22 39
-51 50 -65 27 -33 192 -199 230 -230 55 -46 214 -158 245 -171 16 -8 30 -18
30 -22 0 -5 4 -5 10 -2 5 3 10 3 10 -2 0 -4 15 -15 32 -22 72 -32 165 -73 195
-87 17 -8 38 -14 48 -14 9 0 29 -7 45 -15 17 -9 30 -13 30 -11 0 3 15 0 33 -5
17 -6 46 -13 62 -16 46 -8 60 -11 60 -13 0 -1 11 -3 25 -5 14 -2 45 -6 70 -9
254 -33 478 -25 638 23 18 5 35 10 37 10 15 2 61 15 70 20 6 3 15 6 20 7 52 9
338 148 421 205 23 16 47 29 52 29 6 0 13 7 16 16 4 9 9 14 12 11 3 -3 13 1
22 9 9 8 37 31 62 50 67 53 74 59 139 118 69 64 95 66 107 8 4 -21 9 -44 11
-52 3 -8 6 -22 7 -30 2 -8 6 -22 9 -30 4 -8 11 -34 17 -57 5 -24 15 -62 21
-85 6 -24 13 -54 15 -68 3 -13 9 -29 15 -36 5 -6 6 -14 2 -17 -3 -4 -1 -13 6
-21 10 -12 116 -14 696 -14 l685 1 0 86 c1 108 1 4898 0 5981 l0 806 -86 -1
c-47 0 -87 -1 -88 -2z m-1996 -3218 c62 -11 154 -36 190 -52 19 -8 42 -16 51
-18 10 -2 35 -15 58 -29 22 -14 45 -26 51 -26 5 0 10 -4 10 -10 0 -5 6 -10 13
-10 6 0 32 -18 57 -39 l45 -39 0 -908 0 -909 -32 -42 c-18 -24 -33 -48 -33
-54 0 -5 -4 -7 -10 -4 -5 3 -10 1 -10 -5 0 -12 -69 -82 -118 -120 -44 -33
-133 -80 -152 -80 -9 0 -21 -5 -28 -12 -7 -7 -12 -9 -12 -5 0 3 -12 2 -27 -4
-86 -32 -295 -30 -418 5 -5 2 -22 6 -37 11 -16 4 -28 11 -28 16 0 5 -7 9 -15
9 -37 0 -167 109 -233 195 -38 50 -112 212 -128 278 -1 4 -3 10 -4 15 -1 4 -3
12 -5 17 -1 6 -3 12 -4 15 -3 7 -11 41 -15 65 -2 11 -6 34 -9 50 -26 128 -39
289 -40 500 0 136 8 321 17 371 2 10 7 41 10 67 8 51 12 75 22 117 3 14 7 32
8 40 2 15 23 83 33 110 4 8 5 18 5 23 -1 4 3 7 9 7 5 0 8 4 5 8 -14 23 101
207 177 285 83 84 152 125 282 166 32 9 255 7 315 -4z"/>
<path d="M6164 7412 l-31 -3 -2 -417 c-1 -229 -4 -725 -5 -1102 -2 -377 -4
-689 -6 -695 -1 -5 -1 -12 0 -15 6 -17 5 -152 -2 -156 -5 -3 -5 -10 -2 -16 10
-15 10 -158 1 -158 -4 0 -3 -9 3 -19 7 -14 7 -22 0 -26 -6 -4 -7 -12 -3 -18 9
-15 10 -87 1 -87 -4 0 -3 -12 1 -27 4 -16 6 -37 4 -48 -7 -59 -9 -87 -3 -90 7
-4 4 -65 -5 -86 -3 -10 -2 -20 4 -23 5 -4 7 -19 5 -34 -8 -40 -10 -132 -4
-132 3 0 6 -9 6 -20 0 -11 -3 -20 -6 -20 -5 0 -5 -68 0 -80 1 -3 1 -9 0 -15
-1 -5 -4 -383 -6 -840 -3 -712 -7 -950 -14 -950 -1 0 -3 -20 -5 -45 -2 -25 -6
-58 -9 -75 -3 -16 -9 -50 -12 -75 -7 -51 -6 -45 -34 -160 -11 -47 -30 -114
-42 -150 -12 -36 -21 -68 -20 -72 1 -5 -3 -8 -8 -8 -6 0 -10 -7 -10 -16 0 -18
-42 -116 -77 -179 -27 -48 -108 -180 -113 -185 -3 -3 -17 -21 -30 -40 -69 -99
-216 -239 -363 -348 -24 -17 -47 -32 -51 -32 -4 0 -22 -11 -39 -24 -28 -21
-187 -103 -286 -147 l-34 -15 89 -27 c49 -14 100 -28 114 -31 14 -2 32 -7 40
-10 8 -3 29 -7 45 -10 17 -3 57 -9 90 -15 69 -12 129 -20 200 -27 76 -8 615
-13 615 -5 0 3 17 6 38 7 41 0 146 12 177 20 11 3 34 7 50 9 17 2 30 4 30 5 0
2 37 10 78 17 20 3 37 9 37 13 0 4 8 7 18 6 21 -1 112 26 112 34 0 3 8 6 19 7
10 1 36 9 57 19 21 9 41 18 44 18 27 7 130 61 130 68 0 5 5 6 10 3 6 -3 10 -1
10 4 0 6 7 11 16 11 8 0 22 6 29 13 30 26 44 37 50 37 3 0 11 4 18 10 7 5 41
33 77 62 35 29 82 73 105 97 22 25 47 52 55 61 37 38 170 233 170 249 0 5 4
11 8 13 10 3 115 218 127 258 4 14 13 39 20 55 25 59 58 164 60 190 0 6 3 15
7 20 7 12 34 132 43 190 3 22 7 47 10 55 2 8 6 38 10 65 3 28 9 66 12 85 19
123 23 370 28 1805 3 765 5 1390 5 1390 1 0 2 422 5 938 l3 937 -31 1 c-110 2
-1608 3 -1633 1z"/>
<path d="M9777 4454 c-1 -1 -29 -5 -62 -8 -33 -3 -75 -10 -92 -15 -18 -5 -33
-8 -33 -6 0 1 -35 -10 -77 -27 -43 -16 -84 -30 -90 -31 -7 0 -13 -4 -13 -8 0
-7 -39 -22 -52 -20 -5 1 -8 -3 -8 -9 0 -5 -4 -10 -10 -10 -5 0 -25 -11 -44
-23 -155 -106 -269 -234 -351 -395 -20 -40 -38 -78 -39 -85 -2 -7 -6 -19 -9
-27 -11 -29 -26 -85 -32 -115 -2 -16 -7 -41 -10 -55 -5 -22 -17 -180 -16 -205
0 -5 3 -26 6 -45 3 -19 7 -51 9 -70 3 -19 9 -50 15 -67 5 -18 7 -33 3 -33 -3
0 -1 -5 6 -12 7 -7 12 -19 12 -27 0 -23 40 -118 73 -173 15 -26 27 -51 27 -57
0 -6 4 -11 8 -11 5 0 15 -12 23 -27 8 -15 21 -35 29 -44 8 -8 33 -36 56 -60
58 -63 112 -110 169 -146 28 -18 55 -36 60 -41 10 -8 49 -26 115 -55 157 -67
313 -90 495 -72 52 5 82 11 155 29 85 22 251 102 325 159 57 43 215 207 215
223 0 8 4 14 9 14 5 0 16 12 24 28 8 15 28 53 46 85 18 31 29 57 25 57 -3 0
-2 6 4 13 11 14 43 101 48 132 1 11 9 52 16 90 14 70 15 238 3 305 -10 57 -14
74 -19 98 -4 12 -8 31 -10 42 -3 10 -11 34 -19 52 -8 18 -25 56 -37 83 -52
117 -176 275 -275 350 -22 16 -49 37 -59 47 -10 9 -23 15 -28 12 -4 -3 -8 -1
-8 4 0 12 -149 85 -215 106 -94 29 -190 46 -278 49 -48 2 -88 2 -90 1z"/>
</g>
</svg>
